<svg xmlns:rdf="http://www.w3.org/1999/02/22-rdf-syntax-ns#" xmlns="http://www.w3.org/2000/svg" height="128.06mm" width="192.71mm" version="1.1" xmlns:cc="http://creativecommons.org/ns#" xmlns:dc="http://purl.org/dc/elements/1.1/" viewBox="0 0 682.83014 453.75427">
 <g transform="translate(-37.777 -89.428)">
  <text style="letter-spacing:0px;font-family:sans-serif;font-size:40px;line-height:125%;word-spacing:0px;fill:#1a1a1a" xml:space="preserve" y="134.66823" x="33.776649"><tspan x="33.776649" style="font-size:60px;font-family:Asap;font-weight:bold;fill:#1a1a1a" y="134.66823">My Todo List</tspan></text>
  <rect style="stroke-linejoin:round;stroke:#1a1a1a;stroke-width:6.6667;stroke-linecap:round;fill:none" ry="1.9361" height="53.333" width="53.333" y="178.29" x="41.11"/>
  <rect style="stroke-linejoin:round;stroke:#1a1a1a;stroke-width:3.4453;stroke-linecap:round;fill:#1a1a1a" transform="matrix(.88759 .46064 -.45127 .89239 0 0)" ry="1.1504" height="31.691" width="5.993" y="131.43" x="154.3"/>
  <rect style="stroke-linejoin:round;stroke:#1a1a1a;stroke-width:3.1392;stroke-linecap:round;fill:#1a1a1a" transform="rotate(27.085)" ry=".91170" height="6.2783" width="18.835" y="157.95" x="142.33"/>
  <text style="letter-spacing:0px;font-family:sans-serif;font-size:45.926px;line-height:125%;word-spacing:0px;fill:#1a1a1a" xml:space="preserve" y="219.43391" x="115.84436"><tspan x="115.84436" style="font-family:asap;fill:#1a1a1a" y="219.43391">Pick up kids from school</tspan></text>
  <rect style="stroke-linejoin:round;stroke:#1a1a1a;stroke-width:6.6667;stroke-linecap:round;fill:none" ry="1.9361" height="53.333" width="53.333" y="279.14" x="41.11"/>
  <text style="letter-spacing:0px;font-family:sans-serif;font-size:45.926px;line-height:125%;word-spacing:0px;fill:#1a1a1a" y="320.29105" x="115.84436" xml:space="preserve"><tspan y="320.29105" x="115.84436" style="font-family:asap;fill:#1a1a1a">Learn Haskell</tspan></text>
  <rect style="stroke-linejoin:round;stroke:#1a1a1a;stroke-width:6.6667;stroke-linecap:round;fill:none" ry="1.9361" height="53.333" width="53.333" y="379.14" x="41.11"/>
  <text style="letter-spacing:0px;font-family:sans-serif;font-size:45.926px;line-height:125%;word-spacing:0px;fill:#1a1a1a" xml:space="preserve" y="420.29105" x="115.84436"><tspan x="115.84436" style="font-family:asap;fill:#1a1a1a" y="420.29105">Sleep</tspan></text>
  <rect style="stroke-linejoin:round;stroke:#1a1a1a;stroke-linecap:round;stroke-width:6.6;fill:none" ry="2.3319" height="64.236" width="484.95" y="475.48" x="41.73"/>
  <rect style="stroke-linejoin:round;stroke:#1a1a1a;stroke-linecap:round;stroke-width:6.7425;fill:#1a1a1a" ry="2.3083" height="63.586" width="159.3" y="474.59" x="555.98"/>
  <text style="letter-spacing:0px;font-family:sans-serif;font-size:40px;line-height:125%;word-spacing:0px;fill:#000000" xml:space="preserve" y="519.87402" x="601.77911"><tspan x="601.77911" style="font-family:Asap;font-weight:bold;fill:#ffffff" y="519.87402">Add</tspan></text>
  <path style="stroke:#1a1a1a;stroke-width:4.6595;fill:none" d="m120 205.79h491.43"/>
  <path style="color-rendering:auto;text-decoration-color:#000000;color:#000000;shape-rendering:auto;solid-color:#000000;text-decoration-line:none;fill:#1a1a1a;mix-blend-mode:normal;block-progression:tb;text-indent:0;image-rendering:auto;white-space:normal;text-decoration-style:solid;isolation:auto;text-transform:none" d="m658.95 82.934c-.96 0-1.73.771-1.73 1.728v3.272h-8.27c-.96 0-1.73.771-1.73 1.728v1.545c0 .957.77 1.727 1.73 1.727h10 11.54 10c.96 0 1.73-.770 1.73-1.727v-1.545c0-.957-.77-1.728-1.73-1.728h-8.27v-3.272c0-.957-.77-1.728-1.73-1.728h-11.54zm-7.38 15.461c-2.31 0-4.25 1.935-4.25 4.255v35.93c0 2.31 1.94 4.25 4.25 4.25h27.01c2.31 0 4.25-1.94 4.25-4.25v-35.93c0-2.32-1.94-4.255-4.25-4.255h-27.01zm2.39 4.535h1.52c.96 0 1.74.78 1.74 1.75v31.51c0 .97-.78 1.74-1.74 1.74h-1.52c-.96 0-1.74-.77-1.74-1.74v-31.51c0-.97.78-1.75 1.74-1.75zm10 0h1.52c.96 0 1.74.78 1.74 1.75v31.51c0 .97-.78 1.74-1.74 1.74h-1.52c-.96 0-1.74-.77-1.74-1.74v-31.51c0-.97.78-1.75 1.74-1.75zm10 0h1.52c.96 0 1.74.78 1.74 1.75v31.51c0 .97-.78 1.74-1.74 1.74h-1.52c-.96 0-1.74-.77-1.74-1.74v-31.51c0-.97.78-1.75 1.74-1.75z" transform="translate(37.777 89.428)"/>
  <text style="letter-spacing:0px;font-family:sans-serif;font-size:34.645px;line-height:125%;word-spacing:0px;fill:#000000" xml:space="preserve" y="520.34503" x="55.955246"><tspan x="55.955246" style="font-family:asap;font-style:italic" y="520.34503">E.g. Adopt an owl</tspan></text>
  <path style="color-rendering:auto;text-decoration-color:#000000;color:#000000;shape-rendering:auto;solid-color:#000000;text-decoration-line:none;fill:#1a1a1a;mix-blend-mode:normal;block-progression:tb;text-indent:0;image-rendering:auto;white-space:normal;text-decoration-style:solid;isolation:auto;text-transform:none" d="m696.72 270.93c-.95688 0-1.7266.77163-1.7266 1.7285v3.2715h-8.2734c-.95688 0-1.7266.77163-1.7266 1.7285v1.5449c0 .95688.76968 1.7266 1.7266 1.7266h10 11.545 10c.95689 0 1.7285-.76968 1.7285-1.7266v-1.5449c0-.95689-.77163-1.7285-1.7285-1.7285h-8.2715v-3.2715c0-.95689-.77163-1.7285-1.7285-1.7285h-11.545zm-7.373 15.461c-2.3122 0-4.252 1.9397-4.252 4.252v35.934c0 2.3122 1.9397 4.252 4.252 4.252h27.006c2.3122 0 4.252-1.9397 4.252-4.252v-35.934c0-2.3122-1.9397-4.252-4.252-4.252h-27.006zm2.3887 4.5391h1.5156c.96514 0 1.7422.77705 1.7422 1.7422v31.516c0 .96514-.77705 1.7422-1.7422 1.7422h-1.5156c-.96514 0-1.7422-.77704-1.7422-1.7422v-31.516c0-.96514.77705-1.7422 1.7422-1.7422zm10 0h1.5156c.96514 0 1.7422.77705 1.7422 1.7422v31.516c0 .96514-.77705 1.7422-1.7422 1.7422h-1.5156c-.96514 0-1.7422-.77704-1.7422-1.7422v-31.516c0-.96514.77705-1.7422 1.7422-1.7422zm10 0h1.5156c.96514 0 1.7422.77705 1.7422 1.7422v31.516c0 .96514-.77705 1.7422-1.7422 1.7422h-1.5156c-.96514 0-1.7422-.77704-1.7422-1.7422v-31.516c0-.96514.77705-1.7422 1.7422-1.7422z"/>
  <path style="color-rendering:auto;text-decoration-color:#000000;color:#000000;shape-rendering:auto;solid-color:#000000;text-decoration-line:none;fill:#1a1a1a;mix-blend-mode:normal;block-progression:tb;text-indent:0;image-rendering:auto;white-space:normal;text-decoration-style:solid;isolation:auto;text-transform:none" d="m696.72 370.93c-.95688 0-1.7266.77163-1.7266 1.7285v3.2715h-8.2734c-.95688 0-1.7266.77163-1.7266 1.7285v1.5449c0 .95688.76968 1.7266 1.7266 1.7266h10 11.545 10c.95689 0 1.7285-.76968 1.7285-1.7266v-1.5449c0-.95689-.77163-1.7285-1.7285-1.7285h-8.2715v-3.2715c0-.95689-.77163-1.7285-1.7285-1.7285h-11.545zm-7.373 15.461c-2.3122 0-4.252 1.9397-4.252 4.252v35.934c0 2.3122 1.9397 4.252 4.252 4.252h27.006c2.3122 0 4.252-1.9397 4.252-4.252v-35.934c0-2.3122-1.9397-4.252-4.252-4.252h-27.006zm2.3887 4.5391h1.5156c.96514 0 1.7422.77705 1.7422 1.7422v31.516c0 .96514-.77705 1.7422-1.7422 1.7422h-1.5156c-.96514 0-1.7422-.77704-1.7422-1.7422v-31.516c0-.96514.77705-1.7422 1.7422-1.7422zm10 0h1.5156c.96514 0 1.7422.77705 1.7422 1.7422v31.516c0 .96514-.77705 1.7422-1.7422 1.7422h-1.5156c-.96514 0-1.7422-.77704-1.7422-1.7422v-31.516c0-.96514.77705-1.7422 1.7422-1.7422zm10 0h1.5156c.96514 0 1.7422.77705 1.7422 1.7422v31.516c0 .96514-.77705 1.7422-1.7422 1.7422h-1.5156c-.96514 0-1.7422-.77704-1.7422-1.7422v-31.516c0-.96514.77705-1.7422 1.7422-1.7422z"/>
 </g>
</svg>
